<svg width="30" height="30" viewBox="0 0 30 30" fill="none" xmlns="http://www.w3.org/2000/svg">
<path fill-rule="evenodd" clip-rule="evenodd" d="M15.0269 0.112305C6.75907 0.112305 0.0546875 6.92974 0.0546875 15.3401C0.0546875 22.0683 4.34469 27.7765 10.2936 29.79C11.0419 29.931 11.3166 29.4597 11.3166 29.0575C11.3166 28.6944 11.3027 27.4948 11.2963 26.2223C7.13097 27.1435 6.25204 24.4256 6.25204 24.4256C5.57097 22.6655 4.58965 22.1974 4.58965 22.1974C3.23122 21.2523 4.69204 21.2717 4.69204 21.2717C6.19551 21.3789 6.98717 22.841 6.98717 22.841C8.32254 25.169 10.4897 24.496 11.3441 24.1069C11.4785 23.1229 11.8665 22.4506 12.2947 22.0706C8.96915 21.6855 5.47328 20.3798 5.47328 14.5448C5.47328 12.8822 6.05816 11.5238 7.01593 10.4574C6.86047 10.0736 6.34799 8.52498 7.16097 6.42742C7.16097 6.42742 8.41824 6.01815 11.2794 7.98836C12.4737 7.65095 13.7545 7.48175 15.0269 7.47595C16.2993 7.48175 17.5811 7.65095 18.7777 7.98836C21.6353 6.01815 22.8909 6.42742 22.8909 6.42742C23.7058 8.52498 23.1931 10.0736 23.0377 10.4574C23.9977 11.5238 24.5786 12.8822 24.5786 14.5448C24.5786 20.3937 21.076 21.6815 17.742 22.0585C18.2791 22.5311 18.7576 23.4578 18.7576 24.8785C18.7576 26.9158 18.7402 28.5557 18.7402 29.0575C18.7402 29.4627 19.0097 29.9376 19.7687 29.788C25.7144 27.7722 29.9989 22.066 29.9989 15.3401C29.9989 6.92974 23.2955 0.112305 15.0269 0.112305Z" fill="white"/>
<path fill-rule="evenodd" clip-rule="evenodd" d="M5.72543 21.9763C5.69246 22.0522 5.57543 22.0746 5.46882 22.0227C5.36022 21.973 5.29923 21.8699 5.33444 21.794C5.36667 21.716 5.48394 21.6946 5.59229 21.7463C5.70113 21.7962 5.76312 21.9004 5.72543 21.9763Z" fill="white"/>
<path fill-rule="evenodd" clip-rule="evenodd" d="M6.33188 22.6642C6.26047 22.7315 6.12089 22.7003 6.02618 22.5938C5.92824 22.4877 5.90989 22.3457 5.98229 22.2774C6.05593 22.21 6.1913 22.2416 6.28948 22.3477C6.38741 22.4551 6.40651 22.5961 6.33188 22.6642Z" fill="white"/>
<path fill-rule="evenodd" clip-rule="evenodd" d="M6.92221 23.5413C6.83047 23.6061 6.68047 23.5453 6.58775 23.4099C6.49601 23.2745 6.49601 23.1121 6.58973 23.047C6.6827 22.9819 6.83047 23.0404 6.92444 23.1748C7.01593 23.3123 7.01593 23.4749 6.92221 23.5413Z" fill="white"/>
<path fill-rule="evenodd" clip-rule="evenodd" d="M7.73097 24.3885C7.6489 24.4806 7.47411 24.4559 7.34618 24.3303C7.21527 24.2075 7.17882 24.0332 7.26113 23.9412C7.34419 23.8489 7.51998 23.8749 7.6489 23.9994C7.77882 24.122 7.81849 24.2975 7.73097 24.3885Z" fill="white"/>
<path fill-rule="evenodd" clip-rule="evenodd" d="M8.84667 24.8805C8.81047 24.9998 8.64213 25.054 8.47254 25.0033C8.3032 24.9511 8.19237 24.8114 8.22659 24.6909C8.2618 24.5709 8.43089 24.5144 8.60171 24.5686C8.7708 24.6205 8.88188 24.7592 8.84667 24.8805Z" fill="white"/>
<path fill-rule="evenodd" clip-rule="evenodd" d="M10.072 24.9718C10.0762 25.0974 9.93237 25.2015 9.75436 25.2036C9.57535 25.2078 9.43056 25.1062 9.42857 24.9827C9.42857 24.8558 9.56915 24.7527 9.74816 24.7497C9.92618 24.7461 10.072 24.847 10.072 24.9718Z" fill="white"/>
<path fill-rule="evenodd" clip-rule="evenodd" d="M11.2122 24.7744C11.2335 24.8969 11.1098 25.0228 10.933 25.056C10.7592 25.0886 10.5983 25.0129 10.5763 24.8914C10.5547 24.7658 10.6806 24.64 10.8542 24.6074C11.0312 24.5762 11.1896 24.6498 11.2122 24.7744Z" fill="white"/>
</svg>
